<svg width="20" height="20" viewBox="0 0 20 20" fill="none" xmlns="http://www.w3.org/2000/svg">
<path d="M10.8334 18.3327H5.49241C4.2046 18.3327 3.18028 17.706 2.26057 16.8298C0.377825 15.0361 3.46902 13.6027 4.648 12.9007C6.64735 11.7102 9.03544 11.3806 11.25 11.912" stroke="#BA110B" stroke-width="1.5" stroke-linecap="round" stroke-linejoin="round"/>
<path d="M13.75 5.41602C13.75 7.48708 12.0711 9.16602 10 9.16602C7.92893 9.16602 6.25 7.48708 6.25 5.41602C6.25 3.34495 7.92893 1.66602 10 1.66602C12.0711 1.66602 13.75 3.34495 13.75 5.41602Z" fill="white" stroke="#BA110B" stroke-width="1.5"/>
<path d="M13.3333 18.334L15.8333 15.834M15.8333 15.834L18.3333 13.334M15.8333 15.834L13.3333 13.334M15.8333 15.834L18.3333 18.334" stroke="#BA110B" stroke-width="1.5" stroke-linecap="round"/>
</svg>
