<svg width="20" height="20" viewBox="0 0 20 20" fill="none" xmlns="http://www.w3.org/2000/svg">
<path d="M2.10825 12.3073C1.93104 13.469 2.72331 14.2753 3.69336 14.6772C7.41232 16.2178 12.5876 16.2178 16.3066 14.6772C17.2766 14.2753 18.0689 13.469 17.8917 12.3073C17.7828 11.5934 17.2443 10.9989 16.8453 10.4184C16.3227 9.64877 16.2708 8.80918 16.2707 7.91602C16.2707 4.46423 13.4632 1.66602 9.99998 1.66602C6.53676 1.66602 3.72926 4.46423 3.72926 7.91602C3.72917 8.80918 3.67725 9.64877 3.15466 10.4184C2.75568 10.9989 2.21716 11.5934 2.10825 12.3073Z" stroke="#1D2739" stroke-width="1.5" stroke-linecap="round" stroke-linejoin="round"/>
<path d="M6.66669 15.834C7.04876 17.2717 8.39627 18.334 10 18.334C11.6038 18.334 12.9513 17.2717 13.3334 15.834" fill="white"/>
<path d="M6.66669 15.834C7.04876 17.2717 8.39627 18.334 10 18.334C11.6038 18.334 12.9513 17.2717 13.3334 15.834" stroke="#1D2739" stroke-width="1.5" stroke-linecap="round" stroke-linejoin="round"/>
</svg>
